<?xml version="1.0" encoding="UTF-8"?>
<!DOCTYPE svg PUBLIC "-//W3C//DTD SVG 1.1//EN" "http://www.w3.org/Graphics/SVG/1.1/DTD/svg11.dtd">
<svg xmlns="http://www.w3.org/2000/svg" version="1.1" width="1900px" height="1166px" style="shape-rendering:geometricPrecision; text-rendering:geometricPrecision; image-rendering:optimizeQuality; fill-rule:evenodd; clip-rule:evenodd" xmlns:xlink="http://www.w3.org/1999/xlink">
<g><path style="opacity:0.973" fill="#000000" d="M 1756.5,18.5 C 1796.07,18.1701 1835.57,18.5034 1875,19.5C 1875.83,60.0711 1875.66,100.571 1874.5,141C 1835.5,141.833 1796.5,141.667 1757.5,140.5C 1755.37,99.8164 1755.04,59.1497 1756.5,18.5 Z"/></g>
<g><path style="opacity:0.98" fill="#000000" d="M 24.5,180.5 C 63.7392,180.17 102.906,180.503 142,181.5C 142.333,226.833 142.667,272.167 143,317.5C 235.474,238.084 341.974,209.584 462.5,232C 553.674,253.05 627.007,300.883 682.5,375.5C 744.156,281.563 831.656,232.897 945,229.5C 1015.26,230.419 1078.1,252.085 1133.5,294.5C 1133.84,256.452 1134.84,218.619 1136.5,181C 1175.4,180.17 1214.24,180.337 1253,181.5C 1253.33,228.5 1253.67,275.5 1254,322.5C 1335.37,248.488 1431.2,216.321 1541.5,226C 1585.36,231.064 1627.02,243.397 1666.5,263C 1667.33,263.833 1668.17,264.667 1669,265.5C 1669.83,313.17 1669.67,360.837 1668.5,408.5C 1600.63,349.952 1522.96,331.452 1435.5,353C 1348.4,380.43 1291.9,437.93 1266,525.5C 1244.98,618.944 1268.15,699.444 1335.5,767C 1400.84,824.171 1476.18,843.505 1561.5,825C 1647.37,800.795 1705.21,746.628 1735,662.5C 1740.98,643.269 1744.65,623.603 1746,603.5C 1746.33,463.167 1746.67,322.833 1747,182.5C 1747.5,182 1748,181.5 1748.5,181C 1787.17,180.333 1825.83,180.333 1864.5,181C 1866.47,438.143 1866.47,695.31 1864.5,952.5C 1825.84,953.667 1787.17,953.833 1748.5,953C 1747.87,952.25 1747.37,951.416 1747,950.5C 1746.67,919.833 1746.33,889.167 1746,858.5C 1658.35,934.259 1556.85,963.759 1441.5,947C 1369.84,934.083 1307.34,903.25 1254,854.5C 1253.83,887.208 1253.33,919.875 1252.5,952.5C 1213.84,953.667 1175.17,953.833 1136.5,953C 1135.87,952.25 1135.37,951.416 1135,950.5C 1134.5,851.167 1134.33,751.834 1134.5,652.5C 1022.83,652.667 911.166,652.5 799.5,652C 798.337,613.238 798.17,574.405 799,535.5C 799.5,535 800,534.5 800.5,534C 911.833,533.5 1023.17,533.333 1134.5,533.5C 1129.11,453.676 1090.44,396.843 1018.5,363C 946.503,336.112 880.503,346.445 820.5,394C 779.431,431.312 757.597,477.812 755,533.5C 754.667,672.5 754.333,811.5 754,950.5C 753.626,951.416 753.126,952.25 752.5,953C 733.167,953.167 713.833,953.333 694.5,953.5C 674.783,953.494 655.283,952.827 636,951.5C 635.667,821.5 635.333,691.5 635,561.5C 624.739,480.748 585.572,418.581 517.5,375C 446.941,334.252 373.275,327.586 296.5,355C 215.543,388.792 164.543,448.292 143.5,533.5C 257.834,533.333 372.167,533.5 486.5,534C 487.497,573.427 487.83,612.927 487.5,652.5C 373.833,652.5 260.167,652.5 146.5,652.5C 167.792,727.627 213.792,781.794 284.5,815C 353.959,843.934 423.293,843.6 492.5,814C 513.874,803.655 533.541,790.822 551.5,775.5C 552.667,820.496 552.833,865.496 552,910.5C 548.09,914.208 543.59,917.042 538.5,919C 465.237,951.824 389.237,960.157 310.5,944C 246.884,930.112 191.051,901.612 143,858.5C 142.667,889.167 142.333,919.833 142,950.5C 141.626,951.416 141.126,952.25 140.5,953C 101.829,953.833 63.1624,953.667 24.5,952.5C 22.5273,695.143 22.5273,437.81 24.5,180.5 Z"/></g>
<g><path style="opacity:0.948" fill="#000000" d="M 1503.5,477.5 C 1506.01,477.754 1508.35,478.587 1510.5,480C 1545.67,515.167 1580.83,550.333 1616,585.5C 1616.67,587.833 1616.67,590.167 1616,592.5C 1578.53,628.64 1541.69,665.473 1505.5,703C 1502.18,706.206 1498.85,706.206 1495.5,703C 1460.69,667.771 1425.52,632.604 1390,597.5C 1389.83,596.667 1389.67,595.833 1389.5,595C 1390.18,591.992 1391.68,589.492 1394,587.5C 1431.37,551.591 1467.87,514.925 1503.5,477.5 Z"/></g>
<g><path style="opacity:0.94" fill="#000000" d="M 384.5,1003.5 C 390.833,1003.5 397.167,1003.5 403.5,1003.5C 403.333,1022.17 403.5,1040.84 404,1059.5C 415.5,1041.17 427,1022.83 438.5,1004.5C 447.5,1003.17 456.5,1003.17 465.5,1004.5C 450.377,1025.91 435.377,1047.41 420.5,1069C 436.043,1092.59 451.709,1116.09 467.5,1139.5C 457.851,1140.67 448.184,1140.83 438.5,1140C 427.96,1120.42 417.294,1100.92 406.5,1081.5C 405.675,1080.61 404.675,1080.28 403.5,1080.5C 403.5,1100.5 403.5,1120.5 403.5,1140.5C 397.167,1140.5 390.833,1140.5 384.5,1140.5C 384.5,1094.83 384.5,1049.17 384.5,1003.5 Z"/></g>
<g><path style="opacity:0.953" fill="#000000" d="M 600.5,1003.5 C 625.833,1003.5 651.167,1003.5 676.5,1003.5C 676.5,1009.5 676.5,1015.5 676.5,1021.5C 657.5,1021.5 638.5,1021.5 619.5,1021.5C 619.5,1031.17 619.5,1040.83 619.5,1050.5C 638.5,1050.5 657.5,1050.5 676.5,1050.5C 676.5,1056.5 676.5,1062.5 676.5,1068.5C 657.5,1068.5 638.5,1068.5 619.5,1068.5C 619.5,1086.17 619.5,1103.83 619.5,1121.5C 638.5,1121.5 657.5,1121.5 676.5,1121.5C 676.5,1127.83 676.5,1134.17 676.5,1140.5C 651.167,1140.5 625.833,1140.5 600.5,1140.5C 600.5,1094.83 600.5,1049.17 600.5,1003.5 Z"/></g>
<g><path style="opacity:0.943" fill="#000000" d="M 817.5,1003.5 C 823.5,1003.5 829.5,1003.5 835.5,1003.5C 835.5,1028.5 835.5,1053.5 835.5,1078.5C 848.167,1078.5 860.833,1078.5 873.5,1078.5C 873.5,1053.5 873.5,1028.5 873.5,1003.5C 880.167,1003.5 886.833,1003.5 893.5,1003.5C 893.5,1049.17 893.5,1094.83 893.5,1140.5C 867.833,1140.5 842.167,1140.5 816.5,1140.5C 816.192,1134.57 816.525,1128.74 817.5,1123C 836.164,1122.5 854.83,1122.33 873.5,1122.5C 873.5,1114.17 873.5,1105.83 873.5,1097.5C 854.833,1097.5 836.167,1097.5 817.5,1097.5C 817.5,1066.17 817.5,1034.83 817.5,1003.5 Z"/></g>
<g><path style="opacity:0.949" fill="#000000" d="M 1033.5,1003.5 C 1058.83,1003.5 1084.17,1003.5 1109.5,1003.5C 1109.5,1049.17 1109.5,1094.83 1109.5,1140.5C 1102.83,1140.5 1096.17,1140.5 1089.5,1140.5C 1089.5,1120.5 1089.5,1100.5 1089.5,1080.5C 1077.17,1080.5 1064.83,1080.5 1052.5,1080.5C 1052.5,1100.5 1052.5,1120.5 1052.5,1140.5C 1046.17,1140.5 1039.83,1140.5 1033.5,1140.5C 1033.5,1094.83 1033.5,1049.17 1033.5,1003.5 Z M 1052.5,1021.5 C 1064.83,1021.5 1077.17,1021.5 1089.5,1021.5C 1089.5,1035.17 1089.5,1048.83 1089.5,1062.5C 1077.17,1062.5 1064.83,1062.5 1052.5,1062.5C 1052.5,1048.83 1052.5,1035.17 1052.5,1021.5 Z"/></g>
<g><path style="opacity:0.941" fill="#000000" d="M 1249.5,1003.5 C 1255.83,1003.5 1262.17,1003.5 1268.5,1003.5C 1268.33,1022.17 1268.5,1040.84 1269,1059.5C 1280.5,1041.17 1292,1022.83 1303.5,1004.5C 1312.5,1003.17 1321.5,1003.17 1330.5,1004.5C 1315.87,1026.26 1300.87,1047.76 1285.5,1069C 1301.54,1092.24 1317.21,1115.74 1332.5,1139.5C 1322.85,1140.67 1313.18,1140.83 1303.5,1140C 1293.21,1121.25 1283.04,1102.41 1273,1083.5C 1272.09,1081.56 1270.59,1080.56 1268.5,1080.5C 1268.5,1100.5 1268.5,1120.5 1268.5,1140.5C 1262.17,1140.5 1255.83,1140.5 1249.5,1140.5C 1249.5,1094.83 1249.5,1049.17 1249.5,1003.5 Z"/></g>
<g><path style="opacity:0.941" fill="#000000" d="M 1458.5,1003.5 C 1475.83,1003.5 1493.17,1003.5 1510.5,1003.5C 1510.5,1009.83 1510.5,1016.17 1510.5,1022.5C 1505.17,1022.5 1499.83,1022.5 1494.5,1022.5C 1494.5,1055.83 1494.5,1089.17 1494.5,1122.5C 1500.5,1122.5 1506.5,1122.5 1512.5,1122.5C 1512.5,1128.5 1512.5,1134.5 1512.5,1140.5C 1494.83,1140.5 1477.17,1140.5 1459.5,1140.5C 1459.5,1134.5 1459.5,1128.5 1459.5,1122.5C 1464.83,1122.5 1470.17,1122.5 1475.5,1122.5C 1475.5,1089.17 1475.5,1055.83 1475.5,1022.5C 1469.83,1022.5 1464.17,1022.5 1458.5,1022.5C 1458.5,1016.17 1458.5,1009.83 1458.5,1003.5 Z"/></g>
</svg>
