<svg xmlns="http://www.w3.org/2000/svg" viewBox="0 0 32 32"><defs><style>.cls-1{fill:#fffbf3;}</style></defs><g id="share"><path class="cls-1" d="M25.5,21a4.49,4.49,0,0,0-3.22,1.37s0,0-.06,0l-11.38-5.7A4.67,4.67,0,0,0,11,15.5,4.5,4.5,0,0,0,10.72,14L21.53,8.57A4.46,4.46,0,1,0,21,6.5s0,.07,0,.1L9.78,12.22a1.25,1.25,0,0,0-.12.08,4.51,4.51,0,1,0,.25,6.11l11.34,5.67A4.46,4.46,0,0,0,21,25.5,4.5,4.5,0,1,0,25.5,21Zm0-17A2.5,2.5,0,1,1,23,6.5,2.5,2.5,0,0,1,25.5,4ZM6.5,18A2.5,2.5,0,1,1,9,15.5,2.5,2.5,0,0,1,6.5,18Zm19,10A2.5,2.5,0,1,1,28,25.5,2.5,2.5,0,0,1,25.5,28Z"/></g></svg>